<svg width="28" height="28" viewBox="0 0 28 28" fill="none" xmlns="http://www.w3.org/2000/svg">
<path d="M14.0003 9.33341C15.289 9.33341 16.3337 8.28875 16.3337 7.00008C16.3337 5.71142 15.289 4.66675 14.0003 4.66675C12.7117 4.66675 11.667 5.71142 11.667 7.00008C11.667 8.28875 12.7117 9.33341 14.0003 9.33341Z" fill="#333333"/>
<path d="M14.0003 23.3334C15.289 23.3334 16.3337 22.2887 16.3337 21.0001C16.3337 19.7114 15.289 18.6667 14.0003 18.6667C12.7117 18.6667 11.667 19.7114 11.667 21.0001C11.667 22.2887 12.7117 23.3334 14.0003 23.3334Z" fill="#333333"/>
<path d="M14.0003 16.3334C15.289 16.3334 16.3337 15.2887 16.3337 14.0001C16.3337 12.7114 15.289 11.6667 14.0003 11.6667C12.7117 11.6667 11.667 12.7114 11.667 14.0001C11.667 15.2887 12.7117 16.3334 14.0003 16.3334Z" fill="#333333"/>
</svg>
